<?xml version="1.0" encoding="utf-8" standalone="no"?>
<!DOCTYPE svg PUBLIC "-//W3C//DTD SVG 1.1//EN"
  "http://www.w3.org/Graphics/SVG/1.1/DTD/svg11.dtd">
<svg xmlns:xlink="http://www.w3.org/1999/xlink" width="460.8pt" height="345.6pt" viewBox="0 0 460.8 345.6" xmlns="http://www.w3.org/2000/svg" version="1.1">
 <metadata>
  <rdf:RDF xmlns:dc="http://purl.org/dc/elements/1.1/" xmlns:cc="http://creativecommons.org/ns#" xmlns:rdf="http://www.w3.org/1999/02/22-rdf-syntax-ns#">
   <cc:Work>
    <dc:type rdf:resource="http://purl.org/dc/dcmitype/StillImage"/>
    <dc:date>2024-09-26T12:57:53.637468</dc:date>
    <dc:format>image/svg+xml</dc:format>
    <dc:creator>
     <cc:Agent>
      <dc:title>Matplotlib v3.9.2, https://matplotlib.org/</dc:title>
     </cc:Agent>
    </dc:creator>
   </cc:Work>
  </rdf:RDF>
 </metadata>
 <defs>
  <style type="text/css">*{stroke-linejoin: round; stroke-linecap: butt}</style>
 </defs>
 <g id="figure_1">
  <g id="patch_1">
   <path d="M 0 345.6 
L 460.8 345.6 
L 460.8 0 
L 0 0 
z
" style="fill: #ffffff"/>
  </g>
  <g id="axes_1">
   <g id="patch_2">
    <path d="M 57.6 307.584 
L 414.72 307.584 
L 414.72 41.472 
L 57.6 41.472 
z
" style="fill: #ffffff"/>
   </g>
   <g id="matplotlib.axis_1">
    <g id="xtick_1">
     <g id="line2d_1">
      <path d="M 101.590353 307.584 
L 101.590353 41.472 
" clip-path="url(#p8d90ef5613)" style="fill: none; stroke: #555555; stroke-opacity: 0.5; stroke-width: 0.5; stroke-linecap: square"/>
     </g>
     <g id="line2d_2">
      <defs>
       <path id="m0fd8440ea9" d="M 0 0 
L 0 -10 
" style="stroke: #555555; stroke-width: 2"/>
      </defs>
      <g>
       <use xlink:href="#m0fd8440ea9" x="101.590353" y="307.584" style="fill: #555555; stroke: #555555; stroke-width: 2"/>
      </g>
     </g>
     <g id="text_1">
      <!-- 0.05 -->
      <g transform="translate(89.913791 319.673375) scale(0.12 -0.12)">
       <defs>
        <path id="ArialMT-30" d="M 266 2259 
Q 266 3072 433 3567 
Q 600 4063 929 4331 
Q 1259 4600 1759 4600 
Q 2128 4600 2406 4451 
Q 2684 4303 2865 4023 
Q 3047 3744 3150 3342 
Q 3253 2941 3253 2259 
Q 3253 1453 3087 958 
Q 2922 463 2592 192 
Q 2263 -78 1759 -78 
Q 1097 -78 719 397 
Q 266 969 266 2259 
z
M 844 2259 
Q 844 1131 1108 757 
Q 1372 384 1759 384 
Q 2147 384 2411 759 
Q 2675 1134 2675 2259 
Q 2675 3391 2411 3762 
Q 2147 4134 1753 4134 
Q 1366 4134 1134 3806 
Q 844 3388 844 2259 
z
" transform="scale(0.015625)"/>
        <path id="ArialMT-2e" d="M 581 0 
L 581 641 
L 1222 641 
L 1222 0 
L 581 0 
z
" transform="scale(0.015625)"/>
        <path id="ArialMT-35" d="M 266 1200 
L 856 1250 
Q 922 819 1161 601 
Q 1400 384 1738 384 
Q 2144 384 2425 690 
Q 2706 997 2706 1503 
Q 2706 1984 2436 2262 
Q 2166 2541 1728 2541 
Q 1456 2541 1237 2417 
Q 1019 2294 894 2097 
L 366 2166 
L 809 4519 
L 3088 4519 
L 3088 3981 
L 1259 3981 
L 1013 2750 
Q 1425 3038 1878 3038 
Q 2478 3038 2890 2622 
Q 3303 2206 3303 1553 
Q 3303 931 2941 478 
Q 2500 -78 1738 -78 
Q 1113 -78 717 272 
Q 322 622 266 1200 
z
" transform="scale(0.015625)"/>
       </defs>
       <use xlink:href="#ArialMT-30"/>
       <use xlink:href="#ArialMT-2e" x="55.615234"/>
       <use xlink:href="#ArialMT-30" x="83.398438"/>
       <use xlink:href="#ArialMT-35" x="139.013672"/>
      </g>
     </g>
    </g>
    <g id="xtick_2">
     <g id="line2d_3">
      <path d="M 147.99368 307.584 
L 147.99368 41.472 
" clip-path="url(#p8d90ef5613)" style="fill: none; stroke: #555555; stroke-opacity: 0.5; stroke-width: 0.5; stroke-linecap: square"/>
     </g>
     <g id="line2d_4">
      <g>
       <use xlink:href="#m0fd8440ea9" x="147.99368" y="307.584" style="fill: #555555; stroke: #555555; stroke-width: 2"/>
      </g>
     </g>
     <g id="text_2">
      <!-- 0.10 -->
      <g transform="translate(136.317117 319.673375) scale(0.12 -0.12)">
       <defs>
        <path id="ArialMT-31" d="M 2384 0 
L 1822 0 
L 1822 3584 
Q 1619 3391 1289 3197 
Q 959 3003 697 2906 
L 697 3450 
Q 1169 3672 1522 3987 
Q 1875 4303 2022 4600 
L 2384 4600 
L 2384 0 
z
" transform="scale(0.015625)"/>
       </defs>
       <use xlink:href="#ArialMT-30"/>
       <use xlink:href="#ArialMT-2e" x="55.615234"/>
       <use xlink:href="#ArialMT-31" x="83.398438"/>
       <use xlink:href="#ArialMT-30" x="139.013672"/>
      </g>
     </g>
    </g>
    <g id="xtick_3">
     <g id="line2d_5">
      <path d="M 194.397006 307.584 
L 194.397006 41.472 
" clip-path="url(#p8d90ef5613)" style="fill: none; stroke: #555555; stroke-opacity: 0.5; stroke-width: 0.5; stroke-linecap: square"/>
     </g>
     <g id="line2d_6">
      <g>
       <use xlink:href="#m0fd8440ea9" x="194.397006" y="307.584" style="fill: #555555; stroke: #555555; stroke-width: 2"/>
      </g>
     </g>
     <g id="text_3">
      <!-- 0.15 -->
      <g transform="translate(182.720444 319.673375) scale(0.12 -0.12)">
       <use xlink:href="#ArialMT-30"/>
       <use xlink:href="#ArialMT-2e" x="55.615234"/>
       <use xlink:href="#ArialMT-31" x="83.398438"/>
       <use xlink:href="#ArialMT-35" x="139.013672"/>
      </g>
     </g>
    </g>
    <g id="xtick_4">
     <g id="line2d_7">
      <path d="M 240.800333 307.584 
L 240.800333 41.472 
" clip-path="url(#p8d90ef5613)" style="fill: none; stroke: #555555; stroke-opacity: 0.5; stroke-width: 0.5; stroke-linecap: square"/>
     </g>
     <g id="line2d_8">
      <g>
       <use xlink:href="#m0fd8440ea9" x="240.800333" y="307.584" style="fill: #555555; stroke: #555555; stroke-width: 2"/>
      </g>
     </g>
     <g id="text_4">
      <!-- 0.20 -->
      <g transform="translate(229.12377 319.673375) scale(0.12 -0.12)">
       <defs>
        <path id="ArialMT-32" d="M 3222 541 
L 3222 0 
L 194 0 
Q 188 203 259 391 
Q 375 700 629 1000 
Q 884 1300 1366 1694 
Q 2113 2306 2375 2664 
Q 2638 3022 2638 3341 
Q 2638 3675 2398 3904 
Q 2159 4134 1775 4134 
Q 1369 4134 1125 3890 
Q 881 3647 878 3216 
L 300 3275 
Q 359 3922 746 4261 
Q 1134 4600 1788 4600 
Q 2447 4600 2831 4234 
Q 3216 3869 3216 3328 
Q 3216 3053 3103 2787 
Q 2991 2522 2730 2228 
Q 2469 1934 1863 1422 
Q 1356 997 1212 845 
Q 1069 694 975 541 
L 3222 541 
z
" transform="scale(0.015625)"/>
       </defs>
       <use xlink:href="#ArialMT-30"/>
       <use xlink:href="#ArialMT-2e" x="55.615234"/>
       <use xlink:href="#ArialMT-32" x="83.398438"/>
       <use xlink:href="#ArialMT-30" x="139.013672"/>
      </g>
     </g>
    </g>
    <g id="xtick_5">
     <g id="line2d_9">
      <path d="M 287.203659 307.584 
L 287.203659 41.472 
" clip-path="url(#p8d90ef5613)" style="fill: none; stroke: #555555; stroke-opacity: 0.5; stroke-width: 0.5; stroke-linecap: square"/>
     </g>
     <g id="line2d_10">
      <g>
       <use xlink:href="#m0fd8440ea9" x="287.203659" y="307.584" style="fill: #555555; stroke: #555555; stroke-width: 2"/>
      </g>
     </g>
     <g id="text_5">
      <!-- 0.25 -->
      <g transform="translate(275.527097 319.673375) scale(0.12 -0.12)">
       <use xlink:href="#ArialMT-30"/>
       <use xlink:href="#ArialMT-2e" x="55.615234"/>
       <use xlink:href="#ArialMT-32" x="83.398438"/>
       <use xlink:href="#ArialMT-35" x="139.013672"/>
      </g>
     </g>
    </g>
    <g id="xtick_6">
     <g id="line2d_11">
      <path d="M 333.606985 307.584 
L 333.606985 41.472 
" clip-path="url(#p8d90ef5613)" style="fill: none; stroke: #555555; stroke-opacity: 0.5; stroke-width: 0.5; stroke-linecap: square"/>
     </g>
     <g id="line2d_12">
      <g>
       <use xlink:href="#m0fd8440ea9" x="333.606985" y="307.584" style="fill: #555555; stroke: #555555; stroke-width: 2"/>
      </g>
     </g>
     <g id="text_6">
      <!-- 0.30 -->
      <g transform="translate(321.930423 319.673375) scale(0.12 -0.12)">
       <defs>
        <path id="ArialMT-33" d="M 269 1209 
L 831 1284 
Q 928 806 1161 595 
Q 1394 384 1728 384 
Q 2125 384 2398 659 
Q 2672 934 2672 1341 
Q 2672 1728 2419 1979 
Q 2166 2231 1775 2231 
Q 1616 2231 1378 2169 
L 1441 2663 
Q 1497 2656 1531 2656 
Q 1891 2656 2178 2843 
Q 2466 3031 2466 3422 
Q 2466 3731 2256 3934 
Q 2047 4138 1716 4138 
Q 1388 4138 1169 3931 
Q 950 3725 888 3313 
L 325 3413 
Q 428 3978 793 4289 
Q 1159 4600 1703 4600 
Q 2078 4600 2393 4439 
Q 2709 4278 2876 4000 
Q 3044 3722 3044 3409 
Q 3044 3113 2884 2869 
Q 2725 2625 2413 2481 
Q 2819 2388 3044 2092 
Q 3269 1797 3269 1353 
Q 3269 753 2831 336 
Q 2394 -81 1725 -81 
Q 1122 -81 723 278 
Q 325 638 269 1209 
z
" transform="scale(0.015625)"/>
       </defs>
       <use xlink:href="#ArialMT-30"/>
       <use xlink:href="#ArialMT-2e" x="55.615234"/>
       <use xlink:href="#ArialMT-33" x="83.398438"/>
       <use xlink:href="#ArialMT-30" x="139.013672"/>
      </g>
     </g>
    </g>
    <g id="xtick_7">
     <g id="line2d_13">
      <path d="M 380.010312 307.584 
L 380.010312 41.472 
" clip-path="url(#p8d90ef5613)" style="fill: none; stroke: #555555; stroke-opacity: 0.5; stroke-width: 0.5; stroke-linecap: square"/>
     </g>
     <g id="line2d_14">
      <g>
       <use xlink:href="#m0fd8440ea9" x="380.010312" y="307.584" style="fill: #555555; stroke: #555555; stroke-width: 2"/>
      </g>
     </g>
     <g id="text_7">
      <!-- 0.35 -->
      <g transform="translate(368.333749 319.673375) scale(0.12 -0.12)">
       <use xlink:href="#ArialMT-30"/>
       <use xlink:href="#ArialMT-2e" x="55.615234"/>
       <use xlink:href="#ArialMT-33" x="83.398438"/>
       <use xlink:href="#ArialMT-35" x="139.013672"/>
      </g>
     </g>
    </g>
    <g id="xtick_8">
     <g id="line2d_15">
      <defs>
       <path id="m6a4cced387" d="M 0 0 
L 0 -6 
" style="stroke: #555555"/>
      </defs>
      <g>
       <use xlink:href="#m6a4cced387" x="64.467692" y="307.584" style="fill: #555555; stroke: #555555"/>
      </g>
     </g>
    </g>
    <g id="xtick_9">
     <g id="line2d_16">
      <g>
       <use xlink:href="#m6a4cced387" x="73.748358" y="307.584" style="fill: #555555; stroke: #555555"/>
      </g>
     </g>
    </g>
    <g id="xtick_10">
     <g id="line2d_17">
      <g>
       <use xlink:href="#m6a4cced387" x="83.029023" y="307.584" style="fill: #555555; stroke: #555555"/>
      </g>
     </g>
    </g>
    <g id="xtick_11">
     <g id="line2d_18">
      <g>
       <use xlink:href="#m6a4cced387" x="92.309688" y="307.584" style="fill: #555555; stroke: #555555"/>
      </g>
     </g>
    </g>
    <g id="xtick_12">
     <g id="line2d_19">
      <g>
       <use xlink:href="#m6a4cced387" x="110.871019" y="307.584" style="fill: #555555; stroke: #555555"/>
      </g>
     </g>
    </g>
    <g id="xtick_13">
     <g id="line2d_20">
      <g>
       <use xlink:href="#m6a4cced387" x="120.151684" y="307.584" style="fill: #555555; stroke: #555555"/>
      </g>
     </g>
    </g>
    <g id="xtick_14">
     <g id="line2d_21">
      <g>
       <use xlink:href="#m6a4cced387" x="129.432349" y="307.584" style="fill: #555555; stroke: #555555"/>
      </g>
     </g>
    </g>
    <g id="xtick_15">
     <g id="line2d_22">
      <g>
       <use xlink:href="#m6a4cced387" x="138.713015" y="307.584" style="fill: #555555; stroke: #555555"/>
      </g>
     </g>
    </g>
    <g id="xtick_16">
     <g id="line2d_23">
      <g>
       <use xlink:href="#m6a4cced387" x="157.274345" y="307.584" style="fill: #555555; stroke: #555555"/>
      </g>
     </g>
    </g>
    <g id="xtick_17">
     <g id="line2d_24">
      <g>
       <use xlink:href="#m6a4cced387" x="166.55501" y="307.584" style="fill: #555555; stroke: #555555"/>
      </g>
     </g>
    </g>
    <g id="xtick_18">
     <g id="line2d_25">
      <g>
       <use xlink:href="#m6a4cced387" x="175.835676" y="307.584" style="fill: #555555; stroke: #555555"/>
      </g>
     </g>
    </g>
    <g id="xtick_19">
     <g id="line2d_26">
      <g>
       <use xlink:href="#m6a4cced387" x="185.116341" y="307.584" style="fill: #555555; stroke: #555555"/>
      </g>
     </g>
    </g>
    <g id="xtick_20">
     <g id="line2d_27">
      <g>
       <use xlink:href="#m6a4cced387" x="203.677672" y="307.584" style="fill: #555555; stroke: #555555"/>
      </g>
     </g>
    </g>
    <g id="xtick_21">
     <g id="line2d_28">
      <g>
       <use xlink:href="#m6a4cced387" x="212.958337" y="307.584" style="fill: #555555; stroke: #555555"/>
      </g>
     </g>
    </g>
    <g id="xtick_22">
     <g id="line2d_29">
      <g>
       <use xlink:href="#m6a4cced387" x="222.239002" y="307.584" style="fill: #555555; stroke: #555555"/>
      </g>
     </g>
    </g>
    <g id="xtick_23">
     <g id="line2d_30">
      <g>
       <use xlink:href="#m6a4cced387" x="231.519667" y="307.584" style="fill: #555555; stroke: #555555"/>
      </g>
     </g>
    </g>
    <g id="xtick_24">
     <g id="line2d_31">
      <g>
       <use xlink:href="#m6a4cced387" x="250.080998" y="307.584" style="fill: #555555; stroke: #555555"/>
      </g>
     </g>
    </g>
    <g id="xtick_25">
     <g id="line2d_32">
      <g>
       <use xlink:href="#m6a4cced387" x="259.361663" y="307.584" style="fill: #555555; stroke: #555555"/>
      </g>
     </g>
    </g>
    <g id="xtick_26">
     <g id="line2d_33">
      <g>
       <use xlink:href="#m6a4cced387" x="268.642328" y="307.584" style="fill: #555555; stroke: #555555"/>
      </g>
     </g>
    </g>
    <g id="xtick_27">
     <g id="line2d_34">
      <g>
       <use xlink:href="#m6a4cced387" x="277.922994" y="307.584" style="fill: #555555; stroke: #555555"/>
      </g>
     </g>
    </g>
    <g id="xtick_28">
     <g id="line2d_35">
      <g>
       <use xlink:href="#m6a4cced387" x="296.484324" y="307.584" style="fill: #555555; stroke: #555555"/>
      </g>
     </g>
    </g>
    <g id="xtick_29">
     <g id="line2d_36">
      <g>
       <use xlink:href="#m6a4cced387" x="305.76499" y="307.584" style="fill: #555555; stroke: #555555"/>
      </g>
     </g>
    </g>
    <g id="xtick_30">
     <g id="line2d_37">
      <g>
       <use xlink:href="#m6a4cced387" x="315.045655" y="307.584" style="fill: #555555; stroke: #555555"/>
      </g>
     </g>
    </g>
    <g id="xtick_31">
     <g id="line2d_38">
      <g>
       <use xlink:href="#m6a4cced387" x="324.32632" y="307.584" style="fill: #555555; stroke: #555555"/>
      </g>
     </g>
    </g>
    <g id="xtick_32">
     <g id="line2d_39">
      <g>
       <use xlink:href="#m6a4cced387" x="342.887651" y="307.584" style="fill: #555555; stroke: #555555"/>
      </g>
     </g>
    </g>
    <g id="xtick_33">
     <g id="line2d_40">
      <g>
       <use xlink:href="#m6a4cced387" x="352.168316" y="307.584" style="fill: #555555; stroke: #555555"/>
      </g>
     </g>
    </g>
    <g id="xtick_34">
     <g id="line2d_41">
      <g>
       <use xlink:href="#m6a4cced387" x="361.448981" y="307.584" style="fill: #555555; stroke: #555555"/>
      </g>
     </g>
    </g>
    <g id="xtick_35">
     <g id="line2d_42">
      <g>
       <use xlink:href="#m6a4cced387" x="370.729647" y="307.584" style="fill: #555555; stroke: #555555"/>
      </g>
     </g>
    </g>
    <g id="xtick_36">
     <g id="line2d_43">
      <g>
       <use xlink:href="#m6a4cced387" x="389.290977" y="307.584" style="fill: #555555; stroke: #555555"/>
      </g>
     </g>
    </g>
    <g id="xtick_37">
     <g id="line2d_44">
      <g>
       <use xlink:href="#m6a4cced387" x="398.571642" y="307.584" style="fill: #555555; stroke: #555555"/>
      </g>
     </g>
    </g>
    <g id="xtick_38">
     <g id="line2d_45">
      <g>
       <use xlink:href="#m6a4cced387" x="407.852308" y="307.584" style="fill: #555555; stroke: #555555"/>
      </g>
     </g>
    </g>
   </g>
   <g id="matplotlib.axis_2">
    <g id="ytick_1">
     <g id="line2d_46">
      <path d="M 57.6 273.223619 
L 414.72 273.223619 
" clip-path="url(#p8d90ef5613)" style="fill: none; stroke: #555555; stroke-opacity: 0.5; stroke-width: 0.5; stroke-linecap: square"/>
     </g>
     <g id="line2d_47">
      <defs>
       <path id="mbd599f01e1" d="M 0 0 
L 10 0 
" style="stroke: #555555; stroke-width: 2"/>
      </defs>
      <g>
       <use xlink:href="#mbd599f01e1" x="57.6" y="273.223619" style="fill: #555555; stroke: #555555; stroke-width: 2"/>
      </g>
     </g>
     <g id="text_8">
      <!-- −7.7530 -->
      <g transform="translate(10.391875 277.518306) scale(0.12 -0.12)">
       <defs>
        <path id="ArialMT-2212" d="M 3381 1997 
L 356 1997 
L 356 2522 
L 3381 2522 
L 3381 1997 
z
" transform="scale(0.015625)"/>
        <path id="ArialMT-37" d="M 303 3981 
L 303 4522 
L 3269 4522 
L 3269 4084 
Q 2831 3619 2401 2847 
Q 1972 2075 1738 1259 
Q 1569 684 1522 0 
L 944 0 
Q 953 541 1156 1306 
Q 1359 2072 1739 2783 
Q 2119 3494 2547 3981 
L 303 3981 
z
" transform="scale(0.015625)"/>
       </defs>
       <use xlink:href="#ArialMT-2212"/>
       <use xlink:href="#ArialMT-37" x="58.398438"/>
       <use xlink:href="#ArialMT-2e" x="114.013672"/>
       <use xlink:href="#ArialMT-37" x="141.796875"/>
       <use xlink:href="#ArialMT-35" x="197.412109"/>
       <use xlink:href="#ArialMT-33" x="253.027344"/>
       <use xlink:href="#ArialMT-30" x="308.642578"/>
      </g>
     </g>
    </g>
    <g id="ytick_2">
     <g id="line2d_48">
      <path d="M 57.6 230.779849 
L 414.72 230.779849 
" clip-path="url(#p8d90ef5613)" style="fill: none; stroke: #555555; stroke-opacity: 0.5; stroke-width: 0.5; stroke-linecap: square"/>
     </g>
     <g id="line2d_49">
      <g>
       <use xlink:href="#mbd599f01e1" x="57.6" y="230.779849" style="fill: #555555; stroke: #555555; stroke-width: 2"/>
      </g>
     </g>
     <g id="text_9">
      <!-- −7.7525 -->
      <g transform="translate(10.391875 235.074537) scale(0.12 -0.12)">
       <use xlink:href="#ArialMT-2212"/>
       <use xlink:href="#ArialMT-37" x="58.398438"/>
       <use xlink:href="#ArialMT-2e" x="114.013672"/>
       <use xlink:href="#ArialMT-37" x="141.796875"/>
       <use xlink:href="#ArialMT-35" x="197.412109"/>
       <use xlink:href="#ArialMT-32" x="253.027344"/>
       <use xlink:href="#ArialMT-35" x="308.642578"/>
      </g>
     </g>
    </g>
    <g id="ytick_3">
     <g id="line2d_50">
      <path d="M 57.6 188.33608 
L 414.72 188.33608 
" clip-path="url(#p8d90ef5613)" style="fill: none; stroke: #555555; stroke-opacity: 0.5; stroke-width: 0.5; stroke-linecap: square"/>
     </g>
     <g id="line2d_51">
      <g>
       <use xlink:href="#mbd599f01e1" x="57.6" y="188.33608" style="fill: #555555; stroke: #555555; stroke-width: 2"/>
      </g>
     </g>
     <g id="text_10">
      <!-- −7.7520 -->
      <g transform="translate(10.391875 192.630767) scale(0.12 -0.12)">
       <use xlink:href="#ArialMT-2212"/>
       <use xlink:href="#ArialMT-37" x="58.398438"/>
       <use xlink:href="#ArialMT-2e" x="114.013672"/>
       <use xlink:href="#ArialMT-37" x="141.796875"/>
       <use xlink:href="#ArialMT-35" x="197.412109"/>
       <use xlink:href="#ArialMT-32" x="253.027344"/>
       <use xlink:href="#ArialMT-30" x="308.642578"/>
      </g>
     </g>
    </g>
    <g id="ytick_4">
     <g id="line2d_52">
      <path d="M 57.6 145.892311 
L 414.72 145.892311 
" clip-path="url(#p8d90ef5613)" style="fill: none; stroke: #555555; stroke-opacity: 0.5; stroke-width: 0.5; stroke-linecap: square"/>
     </g>
     <g id="line2d_53">
      <g>
       <use xlink:href="#mbd599f01e1" x="57.6" y="145.892311" style="fill: #555555; stroke: #555555; stroke-width: 2"/>
      </g>
     </g>
     <g id="text_11">
      <!-- −7.7515 -->
      <g transform="translate(10.391875 150.186998) scale(0.12 -0.12)">
       <use xlink:href="#ArialMT-2212"/>
       <use xlink:href="#ArialMT-37" x="58.398438"/>
       <use xlink:href="#ArialMT-2e" x="114.013672"/>
       <use xlink:href="#ArialMT-37" x="141.796875"/>
       <use xlink:href="#ArialMT-35" x="197.412109"/>
       <use xlink:href="#ArialMT-31" x="253.027344"/>
       <use xlink:href="#ArialMT-35" x="308.642578"/>
      </g>
     </g>
    </g>
    <g id="ytick_5">
     <g id="line2d_54">
      <path d="M 57.6 103.448541 
L 414.72 103.448541 
" clip-path="url(#p8d90ef5613)" style="fill: none; stroke: #555555; stroke-opacity: 0.5; stroke-width: 0.5; stroke-linecap: square"/>
     </g>
     <g id="line2d_55">
      <g>
       <use xlink:href="#mbd599f01e1" x="57.6" y="103.448541" style="fill: #555555; stroke: #555555; stroke-width: 2"/>
      </g>
     </g>
     <g id="text_12">
      <!-- −7.7510 -->
      <g transform="translate(10.391875 107.743229) scale(0.12 -0.12)">
       <use xlink:href="#ArialMT-2212"/>
       <use xlink:href="#ArialMT-37" x="58.398438"/>
       <use xlink:href="#ArialMT-2e" x="114.013672"/>
       <use xlink:href="#ArialMT-37" x="141.796875"/>
       <use xlink:href="#ArialMT-35" x="197.412109"/>
       <use xlink:href="#ArialMT-31" x="253.027344"/>
       <use xlink:href="#ArialMT-30" x="308.642578"/>
      </g>
     </g>
    </g>
    <g id="ytick_6">
     <g id="line2d_56">
      <path d="M 57.6 61.004772 
L 414.72 61.004772 
" clip-path="url(#p8d90ef5613)" style="fill: none; stroke: #555555; stroke-opacity: 0.5; stroke-width: 0.5; stroke-linecap: square"/>
     </g>
     <g id="line2d_57">
      <g>
       <use xlink:href="#mbd599f01e1" x="57.6" y="61.004772" style="fill: #555555; stroke: #555555; stroke-width: 2"/>
      </g>
     </g>
     <g id="text_13">
      <!-- −7.7505 -->
      <g transform="translate(10.391875 65.299459) scale(0.12 -0.12)">
       <use xlink:href="#ArialMT-2212"/>
       <use xlink:href="#ArialMT-37" x="58.398438"/>
       <use xlink:href="#ArialMT-2e" x="114.013672"/>
       <use xlink:href="#ArialMT-37" x="141.796875"/>
       <use xlink:href="#ArialMT-35" x="197.412109"/>
       <use xlink:href="#ArialMT-30" x="253.027344"/>
       <use xlink:href="#ArialMT-35" x="308.642578"/>
      </g>
     </g>
    </g>
    <g id="ytick_7">
     <g id="line2d_58">
      <defs>
       <path id="m84f682302a" d="M 0 0 
L 6 0 
" style="stroke: #555555"/>
      </defs>
      <g>
       <use xlink:href="#m84f682302a" x="57.6" y="307.178634" style="fill: #555555; stroke: #555555"/>
      </g>
     </g>
    </g>
    <g id="ytick_8">
     <g id="line2d_59">
      <g>
       <use xlink:href="#m84f682302a" x="57.6" y="298.68988" style="fill: #555555; stroke: #555555"/>
      </g>
     </g>
    </g>
    <g id="ytick_9">
     <g id="line2d_60">
      <g>
       <use xlink:href="#m84f682302a" x="57.6" y="290.201126" style="fill: #555555; stroke: #555555"/>
      </g>
     </g>
    </g>
    <g id="ytick_10">
     <g id="line2d_61">
      <g>
       <use xlink:href="#m84f682302a" x="57.6" y="281.712373" style="fill: #555555; stroke: #555555"/>
      </g>
     </g>
    </g>
    <g id="ytick_11">
     <g id="line2d_62">
      <g>
       <use xlink:href="#m84f682302a" x="57.6" y="264.734865" style="fill: #555555; stroke: #555555"/>
      </g>
     </g>
    </g>
    <g id="ytick_12">
     <g id="line2d_63">
      <g>
       <use xlink:href="#m84f682302a" x="57.6" y="256.246111" style="fill: #555555; stroke: #555555"/>
      </g>
     </g>
    </g>
    <g id="ytick_13">
     <g id="line2d_64">
      <g>
       <use xlink:href="#m84f682302a" x="57.6" y="247.757357" style="fill: #555555; stroke: #555555"/>
      </g>
     </g>
    </g>
    <g id="ytick_14">
     <g id="line2d_65">
      <g>
       <use xlink:href="#m84f682302a" x="57.6" y="239.268603" style="fill: #555555; stroke: #555555"/>
      </g>
     </g>
    </g>
    <g id="ytick_15">
     <g id="line2d_66">
      <g>
       <use xlink:href="#m84f682302a" x="57.6" y="222.291095" style="fill: #555555; stroke: #555555"/>
      </g>
     </g>
    </g>
    <g id="ytick_16">
     <g id="line2d_67">
      <g>
       <use xlink:href="#m84f682302a" x="57.6" y="213.802342" style="fill: #555555; stroke: #555555"/>
      </g>
     </g>
    </g>
    <g id="ytick_17">
     <g id="line2d_68">
      <g>
       <use xlink:href="#m84f682302a" x="57.6" y="205.313588" style="fill: #555555; stroke: #555555"/>
      </g>
     </g>
    </g>
    <g id="ytick_18">
     <g id="line2d_69">
      <g>
       <use xlink:href="#m84f682302a" x="57.6" y="196.824834" style="fill: #555555; stroke: #555555"/>
      </g>
     </g>
    </g>
    <g id="ytick_19">
     <g id="line2d_70">
      <g>
       <use xlink:href="#m84f682302a" x="57.6" y="179.847326" style="fill: #555555; stroke: #555555"/>
      </g>
     </g>
    </g>
    <g id="ytick_20">
     <g id="line2d_71">
      <g>
       <use xlink:href="#m84f682302a" x="57.6" y="171.358572" style="fill: #555555; stroke: #555555"/>
      </g>
     </g>
    </g>
    <g id="ytick_21">
     <g id="line2d_72">
      <g>
       <use xlink:href="#m84f682302a" x="57.6" y="162.869818" style="fill: #555555; stroke: #555555"/>
      </g>
     </g>
    </g>
    <g id="ytick_22">
     <g id="line2d_73">
      <g>
       <use xlink:href="#m84f682302a" x="57.6" y="154.381064" style="fill: #555555; stroke: #555555"/>
      </g>
     </g>
    </g>
    <g id="ytick_23">
     <g id="line2d_74">
      <g>
       <use xlink:href="#m84f682302a" x="57.6" y="137.403557" style="fill: #555555; stroke: #555555"/>
      </g>
     </g>
    </g>
    <g id="ytick_24">
     <g id="line2d_75">
      <g>
       <use xlink:href="#m84f682302a" x="57.6" y="128.914803" style="fill: #555555; stroke: #555555"/>
      </g>
     </g>
    </g>
    <g id="ytick_25">
     <g id="line2d_76">
      <g>
       <use xlink:href="#m84f682302a" x="57.6" y="120.426049" style="fill: #555555; stroke: #555555"/>
      </g>
     </g>
    </g>
    <g id="ytick_26">
     <g id="line2d_77">
      <g>
       <use xlink:href="#m84f682302a" x="57.6" y="111.937295" style="fill: #555555; stroke: #555555"/>
      </g>
     </g>
    </g>
    <g id="ytick_27">
     <g id="line2d_78">
      <g>
       <use xlink:href="#m84f682302a" x="57.6" y="94.959787" style="fill: #555555; stroke: #555555"/>
      </g>
     </g>
    </g>
    <g id="ytick_28">
     <g id="line2d_79">
      <g>
       <use xlink:href="#m84f682302a" x="57.6" y="86.471033" style="fill: #555555; stroke: #555555"/>
      </g>
     </g>
    </g>
    <g id="ytick_29">
     <g id="line2d_80">
      <g>
       <use xlink:href="#m84f682302a" x="57.6" y="77.98228" style="fill: #555555; stroke: #555555"/>
      </g>
     </g>
    </g>
    <g id="ytick_30">
     <g id="line2d_81">
      <g>
       <use xlink:href="#m84f682302a" x="57.6" y="69.493526" style="fill: #555555; stroke: #555555"/>
      </g>
     </g>
    </g>
    <g id="ytick_31">
     <g id="line2d_82">
      <g>
       <use xlink:href="#m84f682302a" x="57.6" y="52.516018" style="fill: #555555; stroke: #555555"/>
      </g>
     </g>
    </g>
    <g id="ytick_32">
     <g id="line2d_83">
      <g>
       <use xlink:href="#m84f682302a" x="57.6" y="44.027264" style="fill: #555555; stroke: #555555"/>
      </g>
     </g>
    </g>
   </g>
   <g id="line2d_84">
    <path d="M 64.467692 302.466462 
L 102.621538 297.786568 
L 140.775385 286.842322 
L 178.929231 269.711552 
L 217.083077 246.515392 
L 255.236923 217.41677 
L 293.390769 182.618306 
L 331.544615 142.359774 
L 369.698462 96.915178 
L 407.852308 46.589538 
" clip-path="url(#p8d90ef5613)" style="fill: none; stroke: #56b4df; stroke-width: 1.5; stroke-linecap: square"/>
   </g>
   <g id="patch_3">
    <path d="M 57.6 307.584 
L 57.6 41.472 
" style="fill: none; stroke: #555555; stroke-width: 0.8; stroke-linejoin: miter; stroke-linecap: square"/>
   </g>
   <g id="patch_4">
    <path d="M 57.6 307.584 
L 414.72 307.584 
" style="fill: none; stroke: #555555; stroke-width: 0.8; stroke-linejoin: miter; stroke-linecap: square"/>
   </g>
  </g>
 </g>
 <defs>
  <clipPath id="p8d90ef5613">
   <rect x="57.6" y="41.472" width="357.12" height="266.112"/>
  </clipPath>
 </defs>
</svg>
